<?xml version="1.0" encoding="UTF-8" standalone="no"?><!DOCTYPE svg PUBLIC "-//W3C//DTD SVG 1.1//EN" "http://www.w3.org/Graphics/SVG/1.1/DTD/svg11.dtd"><svg width="100%" height="100%" viewBox="0 0 800 800" version="1.1" xmlns="http://www.w3.org/2000/svg" xmlns:xlink="http://www.w3.org/1999/xlink" xml:space="preserve" xmlns:serif="http://www.serif.com/" style="fill-rule:evenodd;clip-rule:evenodd;stroke-linejoin:round;stroke-miterlimit:2;"><path d="M146.225,276.175c-9.4,11.2 -24.375,20.075 -39.325,18.775c-1.975,-15.1 5.475,-31.275 14.075,-41.3c9.375,-11.425 25.775,-19.625 39.075,-20.3c1.575,15.775 -4.575,31.275 -13.8,42.825l-0.025,0Zm13.675,21.75c-21.725,-1.325 -40.375,12.475 -50.675,12.475c-10.525,0 -26.3,-11.825 -43.475,-11.425c-22.275,0.275 -43.1,13 -54.425,33.475c-23.575,40.725 -6.125,101.025 16.525,134.225c11.075,16.4 24.325,34.375 41.8,33.875c16.525,-0.675 23.175,-10.925 43.1,-10.925c20.175,0 25.9,10.925 43.5,10.525c18.075,-0.275 29.525,-16.4 40.6,-32.8c12.625,-18.625 17.825,-36.875 18.1,-37.775c-0.275,-0.4 -35.025,-13.8 -35.275,-54.175c-0.275,-33.875 27.325,-50 28.5,-50.925c-15.5,-23.425 -39.975,-25.9 -48.3,-26.525l0.025,-0.025Zm125.4,-45.85l0,246.375l37.875,0l0,-84.225l52.375,0c47.775,0 81.375,-33.2 81.375,-81.125c0,-48.025 -32.925,-81 -80.075,-81l-91.55,-0.025Zm37.875,32.3l43.625,0c32.8,0 51.575,17.7 51.575,48.825c0,31.125 -18.775,48.975 -51.825,48.975l-43.375,0l0,-97.8Zm202.725,215.9c23.825,0 45.825,-12.1 55.875,-31.4l0.8,0l0,29.575l35,0l0,-122.675c0,-35.4 -28.1,-58.425 -71.475,-58.425c-40.1,0 -69.8,23.3 -70.825,55.2l33.975,0c2.875,-15.225 16.675,-25.125 35.825,-25.125c23.175,0 36.075,10.925 36.075,31l0,13.525l-47.125,2.875c-44.025,2.725 -67.725,20.825 -67.725,52.475c0,31.9 24.5,53 59.625,53l-0.025,-0.025Zm10.3,-29.175c-20.2,0 -33.075,-9.775 -33.075,-24.725c0,-15.5 12.375,-24.625 35.925,-26.075l42.075,-2.6l0,13.925c0,23.075 -19.4,39.475 -45.075,39.475l0.15,0Zm128.125,94.4c36.825,0 54.175,-14.325 69.275,-57.425l66.4,-188.275l-38.4,0l-44.525,145.425l-0.8,0l-44.525,-145.425l-39.575,0l64.075,179.3l-3.4,10.925c-5.875,18.375 -15.225,25.5 -31.9,25.5c-3,0 -8.725,-0.375 -11.075,-0.625l0,29.575c2.2,0.625 11.6,0.9 14.325,0.9l0.125,0.125Z" style="fill:#fff;fill-rule:nonzero;"/></svg>