<?xml version="1.0" encoding="UTF-8" standalone="no"?><!DOCTYPE svg PUBLIC "-//W3C//DTD SVG 1.1//EN" "http://www.w3.org/Graphics/SVG/1.1/DTD/svg11.dtd"><svg width="100%" height="100%" viewBox="0 0 123 79" version="1.1" xmlns="http://www.w3.org/2000/svg" xmlns:xlink="http://www.w3.org/1999/xlink" xml:space="preserve" xmlns:serif="http://www.serif.com/" style="fill-rule:evenodd;clip-rule:evenodd;stroke-linejoin:round;stroke-miterlimit:2;"><g><path d="M86.63,45.01c3.23,0 6.1,1.56 7.89,3.96c1.79,-2.41 4.66,-3.96 7.89,-3.96c5.43,0 9.83,4.4 9.83,9.83c0,5.43 -4.4,9.83 -9.83,9.83c-3.23,0 -6.1,-1.56 -7.89,-3.96c-1.79,2.41 -4.66,3.96 -7.89,3.96c-5.43,0 -9.83,-4.4 -9.83,-9.83c0,-5.43 4.4,-9.83 9.83,-9.83Zm-79.87,-45.01l109.36,-0c1.86,-0 3.55,0.76 4.77,1.98c1.22,1.22 1.98,2.92 1.98,4.77l0,64.7c0,1.86 -0.76,3.55 -1.98,4.77c-1.22,1.22 -2.91,1.99 -4.77,1.99l-109.36,-0c-1.86,-0 -3.55,-0.76 -4.77,-1.98c-1.23,-1.22 -1.99,-2.91 -1.99,-4.77l0,-64.7c0,-1.86 0.76,-3.55 1.98,-4.78c1.23,-1.22 2.92,-1.98 4.78,-1.98Zm9.9,51.66c-1.08,-0 -1.96,-0.88 -1.96,-1.96c0,-1.08 0.88,-1.96 1.96,-1.96l32.95,-0c1.08,-0 1.96,0.88 1.96,1.96c0,1.08 -0.88,1.96 -1.96,1.96l-32.95,-0Zm0,10.28c-1.08,-0 -1.96,-0.88 -1.96,-1.96c0,-1.08 0.88,-1.96 1.96,-1.96l22.23,-0c1.08,-0 1.96,0.88 1.96,1.96c0,1.08 -0.88,1.96 -1.96,1.96l-22.23,-0Zm-12.75,-47.38l115.05,-0l0,-7.8c0,-0.78 -0.32,-1.49 -0.84,-2.01c-0.52,-0.52 -1.23,-0.84 -2.01,-0.84l-109.35,-0c-0.78,-0 -1.49,0.32 -2.01,0.84c-0.52,0.52 -0.84,1.23 -0.84,2.01l0,7.8Zm115.06,19.43l-115.06,-0l0,37.47c0,0.78 0.32,1.49 0.84,2.01c0.52,0.52 1.23,0.84 2.01,0.84l109.36,0c0.78,0 1.49,-0.32 2.01,-0.84c0.52,-0.52 0.84,-1.23 0.84,-2.01l0,-37.47Z" style="fill:#fff;"/><clipPath id="_clip1"><path d="M86.63,45.01c3.23,0 6.1,1.56 7.89,3.96c1.79,-2.41 4.66,-3.96 7.89,-3.96c5.43,0 9.83,4.4 9.83,9.83c0,5.43 -4.4,9.83 -9.83,9.83c-3.23,0 -6.1,-1.56 -7.89,-3.96c-1.79,2.41 -4.66,3.96 -7.89,3.96c-5.43,0 -9.83,-4.4 -9.83,-9.83c0,-5.43 4.4,-9.83 9.83,-9.83Zm-79.87,-45.01l109.36,-0c1.86,-0 3.55,0.76 4.77,1.98c1.22,1.22 1.98,2.92 1.98,4.77l0,64.7c0,1.86 -0.76,3.55 -1.98,4.77c-1.22,1.22 -2.91,1.99 -4.77,1.99l-109.36,-0c-1.86,-0 -3.55,-0.76 -4.77,-1.98c-1.23,-1.22 -1.99,-2.91 -1.99,-4.77l0,-64.7c0,-1.86 0.76,-3.55 1.98,-4.78c1.23,-1.22 2.92,-1.98 4.78,-1.98Zm9.9,51.66c-1.08,-0 -1.96,-0.88 -1.96,-1.96c0,-1.08 0.88,-1.96 1.96,-1.96l32.95,-0c1.08,-0 1.96,0.88 1.96,1.96c0,1.08 -0.88,1.96 -1.96,1.96l-32.95,-0Zm0,10.28c-1.08,-0 -1.96,-0.88 -1.96,-1.96c0,-1.08 0.88,-1.96 1.96,-1.96l22.23,-0c1.08,-0 1.96,0.88 1.96,1.96c0,1.08 -0.88,1.96 -1.96,1.96l-22.23,-0Zm-12.75,-47.38l115.05,-0l0,-7.8c0,-0.78 -0.32,-1.49 -0.84,-2.01c-0.52,-0.52 -1.23,-0.84 -2.01,-0.84l-109.35,-0c-0.78,-0 -1.49,0.32 -2.01,0.84c-0.52,0.52 -0.84,1.23 -0.84,2.01l0,7.8Zm115.06,19.43l-115.06,-0l0,37.47c0,0.78 0.32,1.49 0.84,2.01c0.52,0.52 1.23,0.84 2.01,0.84l109.36,0c0.78,0 1.49,-0.32 2.01,-0.84c0.52,-0.52 0.84,-1.23 0.84,-2.01l0,-37.47Z"/></clipPath><g clip-path="url(#_clip1)"><rect x="-2" y="-4" width="165" height="85" style="fill:url(#_Linear2);"/></g></g><defs><linearGradient id="_Linear2" x1="0" y1="0" x2="1" y2="0" gradientUnits="userSpaceOnUse" gradientTransform="matrix(165,0,0,85,-2,38.5)"><stop offset="0" style="stop-color:#fff;stop-opacity:1"/><stop offset="1" style="stop-color:#b9b9b9;stop-opacity:1"/></linearGradient></defs></svg>