<?xml version="1.0" encoding="UTF-8" standalone="no"?><!DOCTYPE svg PUBLIC "-//W3C//DTD SVG 1.1//EN" "http://www.w3.org/Graphics/SVG/1.1/DTD/svg11.dtd"><svg width="100%" height="100%" viewBox="0 0 800 800" version="1.1" xmlns="http://www.w3.org/2000/svg" xmlns:xlink="http://www.w3.org/1999/xlink" xml:space="preserve" xmlns:serif="http://www.serif.com/" style="fill-rule:evenodd;clip-rule:evenodd;stroke-linejoin:round;stroke-miterlimit:2;"><path d="M175,335.153l0,-68.486c0,-124.264 100.736,-225 225,-225c124.263,-0 225,100.736 225,225l0,68.486c37.16,2.777 61.357,9.78 79.043,27.47c29.29,29.29 29.29,76.43 29.29,170.71c0,94.28 0,141.42 -29.29,170.71c-29.29,29.29 -76.43,29.29 -170.71,29.29l-266.666,0c-94.281,0 -141.422,0 -170.711,-29.29c-29.289,-29.29 -29.289,-76.43 -29.289,-170.71c-0,-94.28 -0,-141.42 29.289,-170.71c17.688,-17.69 41.886,-24.693 79.044,-27.47Zm50,-68.486c0,-96.65 78.35,-175 175,-175c96.65,-0 175,78.35 175,175l0,66.786c-12.767,-0.12 -26.617,-0.12 -41.667,-0.12l-266.666,0c-15.051,0 -28.9,0 -41.667,0.12l0,-66.786Zm241.667,266.666c-0,36.82 -29.847,66.667 -66.667,66.667c-36.82,-0 -66.667,-29.847 -66.667,-66.667c0,-36.82 29.847,-66.666 66.667,-66.666c36.82,-0 66.667,29.846 66.667,66.666Z" style="fill:#b9b9b9;"/></svg>
