<?xml version="1.0" encoding="UTF-8" standalone="no"?><!DOCTYPE svg PUBLIC "-//W3C//DTD SVG 1.1//EN" "http://www.w3.org/Graphics/SVG/1.1/DTD/svg11.dtd"><svg width="100%" height="100%" viewBox="0 0 800 800" version="1.1" xmlns="http://www.w3.org/2000/svg" xmlns:xlink="http://www.w3.org/1999/xlink" xml:space="preserve" xmlns:serif="http://www.serif.com/" style="fill-rule:evenodd;clip-rule:evenodd;stroke-linejoin:round;stroke-miterlimit:2;"><g id="Lock"><g><path d="M578.737,322.147l-36.142,0l0,-85.433c0,-69.422 -64.37,-126.547 -142.595,-126.547c-78.225,-0 -142.595,57.125 -142.595,126.547l-0,85.433l-36.142,0c-45.061,0 -82.14,32.907 -82.14,72.896l0,221.895c0.126,39.947 37.127,72.784 82.14,72.895l357.474,0c45.013,-0.111 82.014,-32.948 82.14,-72.895l-0,-221.895c-0,-39.989 -37.079,-72.896 -82.14,-72.896Zm-288.476,-85.433c-0,-53.426 49.538,-97.389 109.739,-97.389c60.201,-0 109.739,43.963 109.739,97.389l0,85.433l-219.478,0l-0,-85.433Zm337.76,380.224c-0.196,23.927 -22.322,43.563 -49.284,43.737l-357.474,0c-26.962,-0.174 -49.088,-19.81 -49.284,-43.737l0,-221.895c0,-23.994 22.248,-43.737 49.284,-43.737l357.474,-0c27.036,-0 49.284,19.743 49.284,43.737l-0,221.895Z" style="fill:#b9b9b9;fill-rule:nonzero;"/><path d="M432.856,486.017c0.039,10.367 -6.257,19.977 -16.428,25.076l0,43.737c0,7.998 -7.416,14.58 -16.428,14.58c-9.012,-0 -16.428,-6.582 -16.428,-14.58l-0,-43.737c-10.171,-5.099 -16.467,-14.709 -16.428,-25.076c-0,-15.996 14.832,-29.158 32.856,-29.158c18.024,-0 32.856,13.162 32.856,29.158Z" style="fill:#b9b9b9;fill-rule:nonzero;"/></g></g></svg>