<?xml version="1.0" encoding="iso-8859-1"?>
<!-- Uploaded to: SVG Repo, www.svgrepo.com, Generator: SVG Repo Mixer Tools -->
<!DOCTYPE svg PUBLIC "-//W3C//DTD SVG 1.1//EN" "http://www.w3.org/Graphics/SVG/1.1/DTD/svg11.dtd">
<svg fill="#000000" version="1.1" id="Capa_1" xmlns="http://www.w3.org/2000/svg" xmlns:xlink="http://www.w3.org/1999/xlink" 
	 width="800px" height="800px" viewBox="0 0 327.7 327.7" xml:space="preserve"
	>
<g>
	<path d="M327.694,69.25c0-10.19-8.257-18.447-18.447-18.447H18.453c-10.19,0-18.446,8.256-18.446,18.447v28.697H327.7V69.25
		H327.694z"/>
	<path d="M0,258.45c0,10.184,8.257,18.446,18.447,18.446h290.8c10.19,0,18.447-8.263,18.447-18.446V143.038H0V258.45z
		 M284.772,198.377H79.807c-10.19,0-18.447-5.512-18.447-12.298c0-6.785,8.257-12.298,18.447-12.298h204.965
		c10.184,0,18.446,5.513,18.446,12.298C303.218,192.866,294.956,198.377,284.772,198.377z"/>
</g>
</svg>