<?xml version="1.0" encoding="UTF-8" standalone="no"?><!DOCTYPE svg PUBLIC "-//W3C//DTD SVG 1.1//EN" "http://www.w3.org/Graphics/SVG/1.1/DTD/svg11.dtd"><svg width="100%" height="100%" viewBox="0 0 800 800" version="1.1" xmlns="http://www.w3.org/2000/svg" xmlns:xlink="http://www.w3.org/1999/xlink" xml:space="preserve" xmlns:serif="http://www.serif.com/" style="fill-rule:evenodd;clip-rule:evenodd;stroke-linejoin:round;stroke-miterlimit:2;"><path d="M637.831,209.735c-40.674,-10.855 -80.411,-24.961 -118.826,-42.181c-37.794,-16.395 -74.278,-35.657 -109.133,-57.618l-9.872,-6.103l-9.693,6.283c-34.855,21.961 -71.339,41.223 -109.133,57.618c-38.478,17.167 -78.275,31.213 -119.005,42.001l-13.462,3.411l0,149.699c0,240.343 242.857,330.27 245.19,331.168l6.103,2.154l6.103,-2.154c2.513,-0 245.19,-90.645 245.19,-331.168l-0,-149.699l-13.462,-3.411Zm-22.437,153.11c-0,197.444 -179.495,280.191 -215.394,294.91c-35.899,-14.719 -215.394,-97.646 -215.394,-294.91l0,-121.878c37.864,-10.885 74.929,-24.379 110.928,-40.386c36.002,-15.562 70.904,-33.553 104.466,-53.848c33.562,20.295 68.464,38.286 104.466,53.848c35.999,16.007 73.064,29.501 110.928,40.386l-0,121.878Z" style="fill:#b9b9b9;fill-rule:nonzero;"/><path d="M272.2,379.717c-3.252,-2.784 -7.395,-4.316 -11.676,-4.316c-9.847,-0 -17.949,8.103 -17.949,17.949c-0,4.281 1.531,8.424 4.316,11.676l107.697,107.697l196.188,-188.649c3.489,-3.393 5.46,-8.058 5.46,-12.924c-0,-9.888 -8.137,-18.025 -18.025,-18.025c-4.691,0 -9.201,1.831 -12.565,5.101l-169.981,164.956l-83.465,-83.465Z" style="fill:#b9b9b9;fill-rule:nonzero;"/><rect x="0" y="0" width="800" height="800" style="fill-opacity:0;"/></svg>